<?xml version="1.0" standalone="no"?>
<!DOCTYPE svg PUBLIC "-//W3C//DTD SVG 20010904//EN"
 "http://www.w3.org/TR/2001/REC-SVG-20010904/DTD/svg10.dtd">
<svg version="1.0" xmlns="http://www.w3.org/2000/svg"
 width="500.000000pt" height="500.000000pt" viewBox="0 0 500.000000 500.000000"
 preserveAspectRatio="xMidYMid meet">
<metadata>
Created by potrace 1.16, written by Peter Selinger 2001-2019
</metadata>
<g transform="translate(0.000000,500.000000) scale(0.100000,-0.100000)"
fill="#000000" stroke="none">
<path d="M0 2500 l0 -2500 2500 0 2500 0 0 2500 0 2500 -2500 0 -2500 0 0
-2500z m2694 1191 c23 -9 26 -14 16 -26 -6 -8 -10 -20 -7 -27 4 -9 6 -7 6 4 1
24 57 34 80 14 10 -9 21 -13 24 -9 4 3 7 -5 8 -18 0 -13 3 -18 6 -11 6 14 33
16 33 2 0 -5 -4 -10 -9 -10 -5 0 -7 -8 -4 -19 3 -12 -2 -20 -16 -24 -12 -3
-21 -13 -20 -24 0 -14 2 -15 7 -3 10 22 36 25 27 3 -11 -28 -17 -106 -8 -112
4 -3 16 -22 26 -41 l19 -35 -26 24 c-19 18 -26 20 -26 10 0 -8 5 -20 12 -27 7
-7 9 -12 4 -12 -16 0 -38 31 -32 47 5 13 4 14 -9 3 -13 -11 -14 -10 -9 4 3 9
11 16 18 16 11 1 -33 29 -46 30 -5 0 -8 -9 -8 -19 0 -11 -4 -22 -9 -25 -12 -8
-23 57 -15 88 4 16 2 26 -5 26 -6 0 -8 -7 -5 -15 4 -8 2 -15 -4 -15 -6 0 -13
6 -15 13 -3 6 -6 -5 -6 -26 -1 -28 2 -36 12 -31 8 5 9 4 2 -4 -5 -5 -19 -12
-29 -14 -13 -2 -20 -12 -21 -32 0 -18 -9 -35 -23 -44 -21 -14 -21 -15 -5 -29
16 -13 16 -13 -4 -4 -12 6 -32 11 -45 10 -23 -1 -23 -1 2 -8 l24 -7 -22 -22
c-38 -38 -62 -24 -62 34 0 16 5 24 14 22 8 -2 31 15 52 37 21 22 32 32 24 23
-7 -10 -9 -18 -5 -18 5 0 0 -10 -11 -22 -18 -20 -18 -21 -1 -15 10 4 22 7 25
7 8 0 7 68 -1 76 -2 3 -16 -8 -29 -24 -14 -16 -43 -42 -66 -57 -38 -25 -40
-29 -29 -49 6 -11 13 -39 14 -61 4 -72 8 -100 16 -112 4 -6 3 -14 -3 -18 -10
-6 -15 13 -11 53 1 13 -5 25 -14 28 -9 4 -14 13 -11 20 3 8 0 14 -6 14 -6 0
-9 3 -5 6 7 7 -53 122 -91 174 -62 87 -159 158 -262 195 l-35 13 47 20 c57 25
170 59 218 65 62 9 304 0 334 -12z m-724 -66 c59 -30 47 -125 -17 -138 -84
-16 -130 97 -55 137 34 19 37 19 72 1z m1110 -20 c32 -17 70 -65 70 -89 0 -27
-107 -22 -139 7 l-25 22 21 -30 c15 -22 20 -42 18 -74 -3 -41 -15 -71 -15 -38
0 10 -4 17 -10 17 -5 0 -10 -5 -10 -11 0 -17 -29 10 -46 42 -16 32 -20 94 -4
69 6 -10 10 -11 10 -2 0 6 6 12 14 12 15 0 28 24 19 34 -10 10 -25 7 -18 -4 3
-5 1 -10 -4 -10 -23 0 -1 38 34 58 27 16 51 15 85 -3z m-899 -234 c128 -44
225 -119 285 -219 l25 -42 -28 0 c-117 -2 -316 -10 -320 -14 -3 -2 -7 -166
-10 -363 -4 -337 -3 -360 14 -381 17 -20 27 -22 187 -24 131 -2 170 -6 174
-16 2 -8 -24 -42 -59 -75 -89 -86 -158 -112 -294 -112 -92 0 -195 19 -195 36
0 4 -13 9 -30 12 -19 4 -56 33 -103 79 -254 255 -287 710 -74 1033 74 111 60
105 227 105 117 0 158 -4 201 -19z m1031 -59 c7 -7 17 -12 23 -12 32 0 127
-220 131 -302 1 -32 5 -62 9 -68 3 -5 0 -7 -9 -4 -9 3 -17 -3 -22 -18 -9 -28
-159 -178 -200 -198 -16 -8 -40 -21 -53 -29 -26 -16 -94 -43 -174 -67 -28 -9
-45 -19 -41 -25 4 -8 1 -8 -12 -1 -11 5 -100 10 -199 11 -109 2 -184 6 -192
13 -17 14 -18 199 -1 216 8 8 62 12 179 12 153 0 168 2 193 21 24 19 26 25 26
107 0 73 -3 89 -21 108 l-21 22 59 11 c91 18 135 30 179 52 46 23 110 73 80
62 -13 -4 -17 -3 -12 5 4 8 2 10 -7 6 -10 -4 -14 2 -14 21 0 16 3 22 7 15 4
-7 16 -9 29 -5 16 5 21 2 21 -12 0 -14 2 -15 9 -4 12 19 -12 43 -36 34 -17 -6
-17 -6 0 14 9 11 15 22 13 24 -3 3 6 4 20 4 13 -1 30 -7 36 -13z m-1511 -1653
c43 -15 99 -56 99 -73 0 -7 -11 -18 -24 -26 -21 -11 -28 -10 -54 9 -41 29
-108 28 -143 -2 -56 -47 -57 -138 -2 -189 35 -33 118 -32 145 1 31 39 24 51
-32 51 l-50 0 0 35 0 35 90 0 90 0 0 -44 c0 -79 -34 -135 -99 -162 -69 -29
-166 -9 -213 43 -49 53 -61 149 -29 220 41 90 133 132 222 102z m247 -186 l-3
-188 -35 0 -35 0 -3 188 -2 187 40 0 40 0 -2 -187z m135 145 c9 -24 28 -79 43
-123 14 -44 30 -87 34 -95 10 -18 4 -31 55 126 20 61 40 116 44 123 5 7 23 11
44 9 l36 -3 -54 -157 c-74 -216 -72 -212 -121 -216 -47 -3 -40 -12 -84 113
-16 44 -44 122 -63 173 l-35 92 43 0 c41 0 43 -2 58 -42z m557 7 l0 -35 -95 0
-95 0 0 -40 0 -40 85 0 85 0 0 -35 0 -34 -82 -3 -83 -3 -3 -37 -3 -37 93 -3
93 -3 0 -35 0 -35 -125 0 -125 0 -3 188 -2 187 130 0 130 0 0 -35z m288 -57
c22 -51 48 -111 57 -133 l17 -40 22 46 c21 45 36 79 75 172 20 46 21 47 66 47
l45 0 0 -191 0 -190 -37 3 -38 3 -5 105 -5 105 -33 -80 c-50 -124 -54 -130
-86 -130 -32 0 -31 -1 -83 115 l-38 85 -5 -100 -5 -100 -37 -3 -38 -3 0 190 0
191 44 0 43 0 41 -92z m612 57 l0 -35 -96 0 -95 0 3 -37 3 -38 83 -3 82 -3 0
-34 0 -34 -82 -3 -83 -3 -3 -37 -3 -38 95 0 96 0 0 -40 0 -40 -130 0 -130 0 0
190 0 190 130 0 130 0 0 -35z"/>
</g>
</svg>
